<?xml version="1.0" standalone="no"?>
<!DOCTYPE svg PUBLIC "-//W3C//DTD SVG 20010904//EN"
 "http://www.w3.org/TR/2001/REC-SVG-20010904/DTD/svg10.dtd">
<svg version="1.0" xmlns="http://www.w3.org/2000/svg"
 width="589.000000pt" height="89.000000pt" viewBox="0 0 589.000000 89.000000"
 preserveAspectRatio="xMidYMid meet">

<g transform="translate(0.000000,89.000000) scale(0.100000,-0.100000)"
fill="#000000" stroke="none">
<path d="M2621 759 c-97 -19 -188 -85 -225 -164 -11 -22 -23 -75 -27 -118 -15
-149 45 -261 170 -321 59 -28 75 -31 151 -30 102 1 174 29 232 90 58 62 81
116 86 205 10 167 -69 283 -221 327 -80 23 -97 25 -166 11z m132 -164 c88 -37
120 -160 66 -251 -37 -61 -137 -83 -209 -46 -74 36 -105 176 -55 244 46 61
126 83 198 53z"/>
<path d="M3906 754 c-59 -19 -89 -36 -139 -83 -58 -54 -79 -102 -85 -198 -9
-154 43 -257 163 -318 50 -25 69 -29 144 -29 69 -1 96 3 136 22 96 44 147 113
165 223 13 82 13 76 -10 99 -18 18 -33 20 -134 20 -63 0 -121 -3 -130 -6 -12
-5 -16 -20 -16 -64 0 -65 5 -70 76 -70 24 0 44 -5 44 -11 0 -62 -122 -92 -200
-48 -125 71 -94 299 45 325 54 10 100 -3 134 -38 27 -27 39 -32 90 -34 36 -2
66 2 77 10 16 13 16 16 -13 67 -33 59 -100 112 -161 128 -73 18 -136 20 -186
5z"/>
<path d="M4630 763 c-112 -19 -203 -81 -246 -170 -25 -51 -29 -69 -29 -148 0
-78 4 -97 28 -147 77 -156 269 -219 439 -144 131 58 201 211 169 367 -24 115
-100 193 -221 229 -65 20 -89 22 -140 13z m119 -171 c55 -27 75 -63 79 -140 3
-57 0 -72 -20 -102 -34 -50 -81 -72 -146 -67 -92 7 -142 65 -142 167 0 123
119 197 229 142z"/>
<path d="M43 753 c-10 -4 -13 -75 -13 -308 0 -267 2 -304 16 -309 28 -11 120
-6 132 6 8 8 12 52 12 130 0 65 4 118 8 118 4 0 32 -25 62 -55 31 -31 63 -55
75 -55 11 0 44 25 74 55 29 30 57 55 62 55 5 0 9 -56 9 -124 0 -104 3 -125 16
-130 28 -11 120 -6 132 6 19 19 17 591 -2 607 -24 20 -56 -4 -170 -130 -60
-65 -114 -119 -120 -119 -6 0 -67 59 -136 130 -69 72 -129 130 -135 129 -5 0
-16 -3 -22 -6z"/>
<path d="M798 753 c-33 -5 -30 32 -28 -348 0 -192 4 -261 13 -267 21 -13 361
-10 375 4 14 14 16 96 3 116 -6 10 -35 14 -107 13 -55 0 -105 4 -112 8 -9 5
-12 24 -10 52 l3 44 89 3 c50 2 96 8 103 14 8 6 13 32 13 64 0 66 -10 73 -110
70 -41 -1 -81 0 -87 2 -8 2 -13 21 -13 43 l0 39 98 0 c124 0 134 6 130 80 -3
50 -5 54 -31 61 -30 8 -280 9 -329 2z"/>
<path d="M1656 744 c-13 -12 -16 -41 -16 -145 0 -71 -4 -129 -8 -129 -5 0 -75
63 -155 141 -126 120 -150 140 -174 137 l-28 -3 -3 -302 -2 -303 23 -5 c13 -4
48 -5 78 -3 l54 3 5 137 c3 75 8 140 13 144 4 4 74 -58 155 -139 114 -113 154
-147 174 -147 14 0 29 7 32 16 3 9 6 143 6 299 0 326 3 315 -85 315 -35 0 -59
-5 -69 -16z"/>
<path d="M1894 742 c-19 -19 -18 -97 2 -116 10 -11 34 -16 74 -16 44 0 59 -4
64 -16 3 -9 6 -114 6 -234 0 -245 -5 -230 80 -230 80 0 80 -1 80 250 0 150 4
221 11 226 6 3 34 6 62 5 28 0 56 4 64 10 17 15 17 113 0 128 -21 17 -426 11
-443 -7z"/>
<path d="M3128 753 c-10 -3 -20 -14 -23 -26 -3 -12 -4 -147 -3 -300 3 -312 -1
-297 80 -297 75 0 78 3 78 80 0 89 5 100 44 100 42 0 46 -4 96 -88 23 -40 51
-77 61 -82 29 -16 156 -13 162 4 3 8 -19 55 -49 104 -30 50 -54 95 -54 100 0
5 7 16 17 23 9 8 27 37 39 64 42 89 27 184 -39 253 -52 55 -85 64 -247 66 -80
2 -153 1 -162 -1z m296 -165 c23 -33 20 -75 -9 -103 -20 -21 -34 -25 -79 -25
-64 0 -76 13 -76 79 0 67 4 71 81 71 59 0 70 -3 83 -22z"/>
<path d="M5645 353 c-38 -10 -78 -46 -97 -90 -29 -65 -17 -116 37 -170 39 -40
47 -43 94 -43 60 0 98 17 135 60 21 26 26 42 26 89 0 112 -87 181 -195 154z"/>
</g>
</svg>
